<?xml version="1.0" encoding="us-ascii" standalone="no"?><svg xmlns="http://www.w3.org/2000/svg" xmlns:xlink="http://www.w3.org/1999/xlink" contentStyleType="text/css" height="1085px" preserveAspectRatio="none" style="width:942px;height:1085px;background:#FFFFFF;" version="1.1" viewBox="0 0 942 1085" width="942px" zoomAndPan="magnify"><defs/><g><!--cluster Modelo--><g id="cluster_Modelo"><path d="M8.5,829.992 L61.5,829.992 A3.75,3.75 0 0 1 64,832.492 L71,855.0599 L237.5,855.0599 A2.5,2.5 0 0 1 240,857.5599 L240,1076.382 A2.5,2.5 0 0 1 237.5,1078.882 L8.5,1078.882 A2.5,2.5 0 0 1 6,1076.382 L6,832.492 A2.5,2.5 0 0 1 8.5,829.992 " fill="#F8F8FF" style="stroke:#AAAAAA;stroke-width:1.5;"/><line style="stroke:#AAAAAA;stroke-width:1.5;" x1="6" x2="71" y1="855.0599" y2="855.0599"/><text fill="#333333" font-family="sans-serif" font-size="14" font-weight="bold" lengthAdjust="spacing" textLength="52" x="10" y="846.9579">Modelo</text></g><!--cluster Servicios--><g id="cluster_Servicios"><path d="M266.5,877.662 L328.5,877.662 A3.75,3.75 0 0 1 331,880.162 L338,902.7299 L932.5,902.7299 A2.5,2.5 0 0 1 935,905.2299 L935,1028.712 A2.5,2.5 0 0 1 932.5,1031.212 L266.5,1031.212 A2.5,2.5 0 0 1 264,1028.712 L264,880.162 A2.5,2.5 0 0 1 266.5,877.662 " fill="#F8F8FF" style="stroke:#AAAAAA;stroke-width:1.5;"/><line style="stroke:#AAAAAA;stroke-width:1.5;" x1="264" x2="338" y1="902.7299" y2="902.7299"/><text fill="#333333" font-family="sans-serif" font-size="14" font-weight="bold" lengthAdjust="spacing" textLength="61" x="268" y="894.6279">Servicios</text></g><!--cluster Controlador--><g id="cluster_Controlador"><path d="M233.5,549.172 L318.5,549.172 A3.75,3.75 0 0 1 321,551.672 L328,574.2399 L606.5,574.2399 A2.5,2.5 0 0 1 609,576.7399 L609,776.492 A2.5,2.5 0 0 1 606.5,778.992 L233.5,778.992 A2.5,2.5 0 0 1 231,776.492 L231,551.672 A2.5,2.5 0 0 1 233.5,549.172 " fill="#F8F8FF" style="stroke:#AAAAAA;stroke-width:1.5;"/><line style="stroke:#AAAAAA;stroke-width:1.5;" x1="231" x2="328" y1="574.2399" y2="574.2399"/><text fill="#333333" font-family="sans-serif" font-size="14" font-weight="bold" lengthAdjust="spacing" textLength="84" x="235" y="566.1379">Controlador</text></g><!--cluster Vista--><g id="cluster_Vista"><path d="M424.5,268.352 L459.5,268.352 A3.75,3.75 0 0 1 462,270.852 L469,293.4199 L667.5,293.4199 A2.5,2.5 0 0 1 670,295.9199 L670,495.672 A2.5,2.5 0 0 1 667.5,498.172 L424.5,498.172 A2.5,2.5 0 0 1 422,495.672 L422,270.852 A2.5,2.5 0 0 1 424.5,268.352 " fill="#F8F8FF" style="stroke:#AAAAAA;stroke-width:1.5;"/><line style="stroke:#AAAAAA;stroke-width:1.5;" x1="422" x2="469" y1="293.4199" y2="293.4199"/><text fill="#333333" font-family="sans-serif" font-size="14" font-weight="bold" lengthAdjust="spacing" textLength="34" x="426" y="285.3179">Vista</text></g><!--cluster Config--><g id="cluster_Config"><path d="M314.5,6.602 L360.5,6.602 A3.75,3.75 0 0 1 363,9.102 L370,31.6699 L525.5,31.6699 A2.5,2.5 0 0 1 528,34.1699 L528,214.852 A2.5,2.5 0 0 1 525.5,217.352 L314.5,217.352 A2.5,2.5 0 0 1 312,214.852 L312,9.102 A2.5,2.5 0 0 1 314.5,6.602 " fill="#F8F8FF" style="stroke:#AAAAAA;stroke-width:1.5;"/><line style="stroke:#AAAAAA;stroke-width:1.5;" x1="312" x2="370" y1="31.6699" y2="31.6699"/><text fill="#333333" font-family="sans-serif" font-size="14" font-weight="bold" lengthAdjust="spacing" textLength="45" x="316" y="23.5679">Config</text></g><!--class Pdf--><g id="elem_Pdf"><rect codeLine="19" fill="#3F3F9F" height="194.8874" id="Pdf" rx="2.5" ry="2.5" style="stroke:#333333;stroke-width:0.5;" width="202" x="22" y="867.992"/><ellipse cx="87.25" cy="890.698" fill="#ADD1B2" rx="11" ry="11" style="stroke:#181818;stroke-width:1.0;"/><path d="M86.7188,897.6199 Q84.9688,897.6199 83.8281,896.8855 Q82.7031,896.1355 82.1406,894.7917 Q81.5938,893.4324 81.5938,891.6355 Q81.5938,889.6042 82.25,888.1511 Q82.9063,886.698 84.1875,885.9167 Q85.4688,885.1355 87.3438,885.1355 Q88.2344,885.1355 88.9063,885.323 Q89.5781,885.4949 90.2656,885.8386 L89.4531,887.8542 Q88.8281,887.5417 88.2813,887.4167 Q87.75,887.2917 87.2656,887.2917 Q86.0938,887.2917 85.3906,887.823 Q84.6875,888.3542 84.3906,889.3074 Q84.0938,890.2605 84.0938,891.5261 Q84.0938,893.5417 84.8125,894.5105 Q85.5313,895.4636 87.125,895.4636 Q87.7188,895.4636 88.3438,895.3074 Q88.9688,895.1511 89.7969,894.7761 L89.7969,896.9949 Q89.0625,897.3074 88.2656,897.4636 Q87.4844,897.6199 86.7188,897.6199 Z " fill="#000000"/><text fill="#DDDDDD" font-family="sans-serif" font-size="12" font-style="italic" lengthAdjust="spacing" textLength="67" x="105.75" y="885.8201">&#171;Document&#187;</text><text fill="#FFFFFF" font-family="sans-serif" font-size="14" lengthAdjust="spacing" textLength="22" x="128.25" y="904.302">Pdf</text><line style="stroke:#333333;stroke-width:0.5;" x1="23" x2="223" y1="913.404" y2="913.404"/><ellipse cx="33" cy="928.438" fill="none" rx="3" ry="3" style="stroke:#038048;stroke-width:1.0;"/><text fill="#FFFFFF" font-family="sans-serif" font-size="14" lengthAdjust="spacing" textLength="56" x="42" y="932.3699">title : str</text><ellipse cx="33" cy="947.5059" fill="none" rx="3" ry="3" style="stroke:#038048;stroke-width:1.0;"/><text fill="#FFFFFF" font-family="sans-serif" font-size="14" lengthAdjust="spacing" textLength="158" x="42" y="951.4379">description : str | None</text><ellipse cx="33" cy="966.5738" fill="none" rx="3" ry="3" style="stroke:#038048;stroke-width:1.0;"/><text fill="#FFFFFF" font-family="sans-serif" font-size="14" lengthAdjust="spacing" textLength="56" x="42" y="970.5058">size : int</text><ellipse cx="33" cy="985.6417" fill="none" rx="3" ry="3" style="stroke:#038048;stroke-width:1.0;"/><text fill="#FFFFFF" font-family="sans-serif" font-size="14" lengthAdjust="spacing" textLength="142" x="42" y="989.5737">created_at : datetime</text><ellipse cx="33" cy="1004.7096" fill="none" rx="3" ry="3" style="stroke:#038048;stroke-width:1.0;"/><text fill="#FFFFFF" font-family="sans-serif" font-size="14" lengthAdjust="spacing" textLength="176" x="42" y="1008.6416">extracted_text : str | None</text><ellipse cx="33" cy="1023.7776" fill="none" rx="3" ry="3" style="stroke:#038048;stroke-width:1.0;"/><text fill="#FFFFFF" font-family="sans-serif" font-size="14" lengthAdjust="spacing" textLength="149" x="42" y="1027.7095">checksum : str | None</text><line style="stroke:#333333;stroke-width:1.0;" x1="23" x2="223" y1="1035.8115" y2="1035.8115"/><text fill="#FFFFFF" font-family="sans-serif" font-size="14" lengthAdjust="spacing" textLength="155" x="28" y="1054.7774">Settings.name = "pdfs"</text></g><!--class PdfExtractor--><g id="elem_PdfExtractor"><rect codeLine="32" fill="#004D40" height="67.0679" id="PdfExtractor" rx="2.5" ry="2.5" style="stroke:#333333;stroke-width:0.5;" width="280" x="280" y="931.902"/><ellipse cx="374.75" cy="947.902" fill="#ADD1B2" rx="11" ry="11" style="stroke:#181818;stroke-width:1.0;"/><path d="M374.2188,954.8239 Q372.4688,954.8239 371.3281,954.0895 Q370.2031,953.3395 369.6406,951.9957 Q369.0938,950.6364 369.0938,948.8395 Q369.0938,946.8082 369.75,945.3551 Q370.4063,943.902 371.6875,943.1207 Q372.9688,942.3395 374.8438,942.3395 Q375.7344,942.3395 376.4063,942.527 Q377.0781,942.6989 377.7656,943.0426 L376.9531,945.0582 Q376.3281,944.7457 375.7813,944.6207 Q375.25,944.4957 374.7656,944.4957 Q373.5938,944.4957 372.8906,945.027 Q372.1875,945.5582 371.8906,946.5114 Q371.5938,947.4645 371.5938,948.7301 Q371.5938,950.7457 372.3125,951.7145 Q373.0313,952.6676 374.625,952.6676 Q375.2188,952.6676 375.8438,952.5114 Q376.4688,952.3551 377.2969,951.9801 L377.2969,954.1989 Q376.5625,954.5114 375.7656,954.6676 Q374.9844,954.8239 374.2188,954.8239 Z " fill="#000000"/><text fill="#FFFFFF" font-family="sans-serif" font-size="14" lengthAdjust="spacing" textLength="82" x="395.25" y="953.334">PdfExtractor</text><line style="stroke:#333333;stroke-width:0.5;" x1="281" x2="559" y1="963.902" y2="963.902"/><line style="stroke:#333333;stroke-width:0.5;" x1="281" x2="559" y1="971.902" y2="971.902"/><ellipse cx="291" cy="986.9359" fill="#84BE84" rx="3" ry="3" style="stroke:#038048;stroke-width:1.0;"/><text fill="#FFFFFF" font-family="sans-serif" font-size="14" lengthAdjust="spacing" textLength="254" x="300" y="990.8679">extract_text(source : Path | bytes) : str</text></g><!--class PdfValidationError--><g id="elem_PdfValidationError"><rect codeLine="35" fill="#7B1A1A" height="99.5479" id="PdfValidationError" rx="2.5" ry="2.5" style="stroke:#333333;stroke-width:0.5;" width="324" x="595" y="915.662"/><ellipse cx="691.25" cy="938.368" fill="#ADD1B2" rx="11" ry="11" style="stroke:#181818;stroke-width:1.0;"/><path d="M690.7188,945.2899 Q688.9688,945.2899 687.8281,944.5555 Q686.7031,943.8055 686.1406,942.4617 Q685.5938,941.1024 685.5938,939.3055 Q685.5938,937.2742 686.25,935.8211 Q686.9063,934.368 688.1875,933.5867 Q689.4688,932.8055 691.3438,932.8055 Q692.2344,932.8055 692.9063,932.993 Q693.5781,933.1649 694.2656,933.5086 L693.4531,935.5242 Q692.8281,935.2117 692.2813,935.0867 Q691.75,934.9617 691.2656,934.9617 Q690.0938,934.9617 689.3906,935.493 Q688.6875,936.0242 688.3906,936.9774 Q688.0938,937.9305 688.0938,939.1961 Q688.0938,941.2117 688.8125,942.1805 Q689.5313,943.1336 691.125,943.1336 Q691.7188,943.1336 692.3438,942.9774 Q692.9688,942.8211 693.7969,942.4461 L693.7969,944.6649 Q693.0625,944.9774 692.2656,945.1336 Q691.4844,945.2899 690.7188,945.2899 Z " fill="#000000"/><text fill="#DDDDDD" font-family="sans-serif" font-size="12" font-style="italic" lengthAdjust="spacing" textLength="63" x="741.75" y="933.4901">&#171;exception&#187;</text><text fill="#FFFFFF" font-family="sans-serif" font-size="14" lengthAdjust="spacing" textLength="123" x="711.75" y="951.972">PdfValidationError</text><line style="stroke:#333333;stroke-width:0.5;" x1="596" x2="918" y1="961.074" y2="961.074"/><line style="stroke:#333333;stroke-width:0.5;" x1="596" x2="918" y1="969.074" y2="969.074"/><ellipse cx="606" cy="984.108" fill="#84BE84" rx="3" ry="3" style="stroke:#038048;stroke-width:1.0;"/><text fill="#FFFFFF" font-family="sans-serif" font-size="14" lengthAdjust="spacing" textLength="298" x="615" y="988.0399">validate_pdf_bytes(content, filename) : None</text><ellipse cx="606" cy="1003.1759" fill="#84BE84" rx="3" ry="3" style="stroke:#038048;stroke-width:1.0;"/><text fill="#FFFFFF" font-family="sans-serif" font-size="14" lengthAdjust="spacing" textLength="235" x="615" y="1007.1079">validate_pdf_path(pdf_path) : None</text></g><!--class pdf_controller--><g id="elem_pdf_controller"><rect codeLine="42" fill="#0D47A1" height="175.8195" id="pdf_controller" rx="2.5" ry="2.5" style="stroke:#333333;stroke-width:0.5;" width="346" x="247" y="587.172"/><ellipse cx="368.75" cy="609.878" fill="#ADD1B2" rx="11" ry="11" style="stroke:#181818;stroke-width:1.0;"/><path d="M368.2188,616.7999 Q366.4688,616.7999 365.3281,616.0655 Q364.2031,615.3155 363.6406,613.9717 Q363.0938,612.6124 363.0938,610.8155 Q363.0938,608.7842 363.75,607.3311 Q364.4063,605.878 365.6875,605.0967 Q366.9688,604.3155 368.8438,604.3155 Q369.7344,604.3155 370.4063,604.503 Q371.0781,604.6749 371.7656,605.0186 L370.9531,607.0342 Q370.3281,606.7217 369.7813,606.5967 Q369.25,606.4717 368.7656,606.4717 Q367.5938,606.4717 366.8906,607.003 Q366.1875,607.5342 365.8906,608.4874 Q365.5938,609.4405 365.5938,610.7061 Q365.5938,612.7217 366.3125,613.6905 Q367.0313,614.6436 368.625,614.6436 Q369.2188,614.6436 369.8438,614.4874 Q370.4688,614.3311 371.2969,613.9561 L371.2969,616.1749 Q370.5625,616.4874 369.7656,616.6436 Q368.9844,616.7999 368.2188,616.7999 Z " fill="#000000"/><text fill="#DDDDDD" font-family="sans-serif" font-size="12" font-style="italic" lengthAdjust="spacing" textLength="53" x="409.75" y="605.0001">&#171;module&#187;</text><text fill="#FFFFFF" font-family="sans-serif" font-size="14" lengthAdjust="spacing" textLength="94" x="389.25" y="623.482">pdf_controller</text><line style="stroke:#333333;stroke-width:0.5;" x1="248" x2="592" y1="632.584" y2="632.584"/><line style="stroke:#333333;stroke-width:0.5;" x1="248" x2="592" y1="640.584" y2="640.584"/><ellipse cx="258" cy="655.618" fill="#84BE84" rx="3" ry="3" style="stroke:#038048;stroke-width:1.0;"/><text fill="#FFFFFF" font-family="sans-serif" font-size="14" lengthAdjust="spacing" textLength="320" x="267" y="659.5499">create_pdf(title, desc, size, text, checksum) : Pdf</text><ellipse cx="258" cy="674.6859" fill="#84BE84" rx="3" ry="3" style="stroke:#038048;stroke-width:1.0;"/><text fill="#FFFFFF" font-family="sans-serif" font-size="14" lengthAdjust="spacing" textLength="307" x="267" y="678.6179">get_pdf_by_checksum(checksum) : Pdf | None</text><ellipse cx="258" cy="693.7538" fill="#84BE84" rx="3" ry="3" style="stroke:#038048;stroke-width:1.0;"/><text fill="#FFFFFF" font-family="sans-serif" font-size="14" lengthAdjust="spacing" textLength="128" x="267" y="697.6858">list_pdfs() : list[Pdf]</text><ellipse cx="258" cy="712.8217" fill="#84BE84" rx="3" ry="3" style="stroke:#038048;stroke-width:1.0;"/><text fill="#FFFFFF" font-family="sans-serif" font-size="14" lengthAdjust="spacing" textLength="135" x="267" y="716.7537">get_pdf(pdf_id) : Pdf</text><ellipse cx="258" cy="731.8896" fill="#84BE84" rx="3" ry="3" style="stroke:#038048;stroke-width:1.0;"/><text fill="#FFFFFF" font-family="sans-serif" font-size="14" lengthAdjust="spacing" textLength="169" x="267" y="735.8216">delete_pdf(pdf_id) : None</text><ellipse cx="258" cy="750.9576" fill="#84BE84" rx="3" ry="3" style="stroke:#038048;stroke-width:1.0;"/><text fill="#FFFFFF" font-family="sans-serif" font-size="14" lengthAdjust="spacing" textLength="164" x="267" y="754.8895">extract_text(pdf_id) : dict</text></g><!--class pdf_router--><g id="elem_pdf_router"><rect codeLine="53" fill="#4A235A" height="175.8195" id="pdf_router" rx="2.5" ry="2.5" style="stroke:#333333;stroke-width:0.5;" width="216" x="438" y="306.352"/><ellipse cx="506.25" cy="329.058" fill="#ADD1B2" rx="11" ry="11" style="stroke:#181818;stroke-width:1.0;"/><path d="M505.7188,335.9799 Q503.9688,335.9799 502.8281,335.2455 Q501.7031,334.4955 501.1406,333.1517 Q500.5938,331.7924 500.5938,329.9955 Q500.5938,327.9642 501.25,326.5111 Q501.9063,325.058 503.1875,324.2767 Q504.4688,323.4955 506.3438,323.4955 Q507.2344,323.4955 507.9063,323.683 Q508.5781,323.8549 509.2656,324.1986 L508.4531,326.2142 Q507.8281,325.9017 507.2813,325.7767 Q506.75,325.6517 506.2656,325.6517 Q505.0938,325.6517 504.3906,326.183 Q503.6875,326.7142 503.3906,327.6674 Q503.0938,328.6205 503.0938,329.8861 Q503.0938,331.9017 503.8125,332.8705 Q504.5313,333.8236 506.125,333.8236 Q506.7188,333.8236 507.3438,333.6674 Q507.9688,333.5111 508.7969,333.1361 L508.7969,335.3549 Q508.0625,335.6674 507.2656,335.8236 Q506.4844,335.9799 505.7188,335.9799 Z " fill="#000000"/><text fill="#DDDDDD" font-family="sans-serif" font-size="12" font-style="italic" lengthAdjust="spacing" textLength="46" x="539.25" y="324.1801">&#171;router&#187;</text><text fill="#FFFFFF" font-family="sans-serif" font-size="14" lengthAdjust="spacing" textLength="71" x="526.75" y="342.662">pdf_router</text><line style="stroke:#333333;stroke-width:0.5;" x1="439" x2="653" y1="351.764" y2="351.764"/><ellipse cx="449" cy="366.798" fill="none" rx="3" ry="3" style="stroke:#038048;stroke-width:1.0;"/><text fill="#FFFFFF" font-family="sans-serif" font-size="14" lengthAdjust="spacing" textLength="100" x="458" y="370.7299">POST /api/pdfs</text><ellipse cx="449" cy="385.8659" fill="none" rx="3" ry="3" style="stroke:#038048;stroke-width:1.0;"/><text fill="#FFFFFF" font-family="sans-serif" font-size="14" lengthAdjust="spacing" textLength="91" x="458" y="389.7979">GET /api/pdfs</text><ellipse cx="449" cy="404.9338" fill="none" rx="3" ry="3" style="stroke:#038048;stroke-width:1.0;"/><text fill="#FFFFFF" font-family="sans-serif" font-size="14" lengthAdjust="spacing" textLength="119" x="458" y="408.8658">GET /api/pdfs/{id}</text><ellipse cx="449" cy="424.0017" fill="none" rx="3" ry="3" style="stroke:#038048;stroke-width:1.0;"/><text fill="#FFFFFF" font-family="sans-serif" font-size="14" lengthAdjust="spacing" textLength="142" x="458" y="427.9337">DELETE /api/pdfs/{id}</text><ellipse cx="449" cy="443.0696" fill="none" rx="3" ry="3" style="stroke:#038048;stroke-width:1.0;"/><text fill="#FFFFFF" font-family="sans-serif" font-size="14" lengthAdjust="spacing" textLength="149" x="458" y="447.0016">GET /api/pdfs/{id}/text</text><ellipse cx="449" cy="462.1376" fill="none" rx="3" ry="3" style="stroke:#038048;stroke-width:1.0;"/><text fill="#FFFFFF" font-family="sans-serif" font-size="14" lengthAdjust="spacing" textLength="190" x="458" y="466.0695">GET /api/pdfs/{id}/download</text><line style="stroke:#333333;stroke-width:0.5;" x1="439" x2="653" y1="474.1715" y2="474.1715"/></g><!--class Settings--><g id="elem_Settings"><rect codeLine="64" fill="#37474F" height="156.7516" id="Settings" rx="2.5" ry="2.5" style="stroke:#333333;stroke-width:0.5;" width="184" x="328" y="44.602"/><ellipse cx="387.25" cy="67.308" fill="#ADD1B2" rx="11" ry="11" style="stroke:#181818;stroke-width:1.0;"/><path d="M386.7188,74.2299 Q384.9688,74.2299 383.8281,73.4955 Q382.7031,72.7455 382.1406,71.4017 Q381.5938,70.0424 381.5938,68.2455 Q381.5938,66.2142 382.25,64.7611 Q382.9063,63.308 384.1875,62.5267 Q385.4688,61.7455 387.3438,61.7455 Q388.2344,61.7455 388.9063,61.933 Q389.5781,62.1049 390.2656,62.4486 L389.4531,64.4642 Q388.8281,64.1517 388.2813,64.0267 Q387.75,63.9017 387.2656,63.9017 Q386.0938,63.9017 385.3906,64.433 Q384.6875,64.9642 384.3906,65.9174 Q384.0938,66.8705 384.0938,68.1361 Q384.0938,70.1517 384.8125,71.1205 Q385.5313,72.0736 387.125,72.0736 Q387.7188,72.0736 388.3438,71.9174 Q388.9688,71.7611 389.7969,71.3861 L389.7969,73.6049 Q389.0625,73.9174 388.2656,74.0736 Q387.4844,74.2299 386.7188,74.2299 Z " fill="#000000"/><text fill="#DDDDDD" font-family="sans-serif" font-size="12" font-style="italic" lengthAdjust="spacing" textLength="61" x="405.75" y="62.4301">&#171;singleton&#187;</text><text fill="#FFFFFF" font-family="sans-serif" font-size="14" lengthAdjust="spacing" textLength="55" x="408.75" y="80.912">Settings</text><line style="stroke:#333333;stroke-width:0.5;" x1="329" x2="511" y1="90.014" y2="90.014"/><ellipse cx="339" cy="105.048" fill="none" rx="3" ry="3" style="stroke:#038048;stroke-width:1.0;"/><text fill="#FFFFFF" font-family="sans-serif" font-size="14" lengthAdjust="spacing" textLength="116" x="348" y="108.9799">MONGO_URI : str</text><ellipse cx="339" cy="124.1159" fill="none" rx="3" ry="3" style="stroke:#038048;stroke-width:1.0;"/><text fill="#FFFFFF" font-family="sans-serif" font-size="14" lengthAdjust="spacing" textLength="158" x="348" y="128.0479">MONGO_DB_NAME : str</text><ellipse cx="339" cy="143.1838" fill="none" rx="3" ry="3" style="stroke:#038048;stroke-width:1.0;"/><text fill="#FFFFFF" font-family="sans-serif" font-size="14" lengthAdjust="spacing" textLength="124" x="348" y="147.1158">API_BASE_URL : str</text><ellipse cx="339" cy="162.2517" fill="none" rx="3" ry="3" style="stroke:#038048;stroke-width:1.0;"/><text fill="#FFFFFF" font-family="sans-serif" font-size="14" lengthAdjust="spacing" textLength="156" x="348" y="166.1837">MAX_FILE_SIZE_MB : int</text><ellipse cx="339" cy="181.3196" fill="none" rx="3" ry="3" style="stroke:#038048;stroke-width:1.0;"/><text fill="#FFFFFF" font-family="sans-serif" font-size="14" lengthAdjust="spacing" textLength="90" x="348" y="185.2516">VERSION : str</text><line style="stroke:#333333;stroke-width:0.5;" x1="329" x2="511" y1="193.3536" y2="193.3536"/></g><!--link pdf_router to pdf_controller--><g id="link_pdf_router_pdf_controller"><path codeLine="73" d="M506.65,482.342 C491.63,515.572 476.9922,547.985 461.9522,581.245 " fill="none" id="pdf_router-to-pdf_controller" style="stroke:#555555;stroke-width:1.0;stroke-dasharray:7.0,7.0;"/><polygon fill="#555555" points="459.48,586.712,466.8329,580.1595,461.5401,582.1561,459.5436,576.8633,459.48,586.712" style="stroke:#555555;stroke-width:1.0;"/><text fill="#000000" font-family="sans-serif" font-size="13" lengthAdjust="spacing" textLength="40" x="491.54" y="529.069">delega</text></g><!--link pdf_controller to PdfExtractor--><g id="link_pdf_controller_PdfExtractor"><path codeLine="74" d="M420,763.382 C420,820.072 420,884.732 420,925.412 " fill="none" id="pdf_controller-to-PdfExtractor" style="stroke:#555555;stroke-width:1.0;stroke-dasharray:7.0,7.0;"/><polygon fill="#555555" points="420,931.412,424,922.412,420,926.412,416,922.412,420,931.412" style="stroke:#555555;stroke-width:1.0;"/><text fill="#000000" font-family="sans-serif" font-size="13" lengthAdjust="spacing" textLength="21" x="421" y="809.889">usa</text></g><!--link pdf_controller to PdfValidationError--><g id="link_pdf_controller_PdfValidationError"><path codeLine="75" d="M522.03,763.382 C580.34,813.282 646.7412,870.091 695.3212,911.661 " fill="none" id="pdf_controller-to-PdfValidationError" style="stroke:#555555;stroke-width:1.0;stroke-dasharray:7.0,7.0;"/><polygon fill="#555555" points="699.88,915.562,695.6425,906.6714,696.081,912.3112,690.4412,912.7497,699.88,915.562" style="stroke:#555555;stroke-width:1.0;"/><text fill="#000000" font-family="sans-serif" font-size="13" lengthAdjust="spacing" textLength="31" x="579.4" y="809.889">lanza</text></g><!--link pdf_controller to Pdf--><g id="link_pdf_controller_Pdf"><path codeLine="76" d="M325.41,763.462 C305.01,782.602 283.68,802.862 264,821.992 C248.9,836.672 237.3085,848.1152 221.9285,863.5252 " fill="none" id="pdf_controller-to-Pdf" style="stroke:#555555;stroke-width:1.0;stroke-dasharray:7.0,7.0;"/><polygon fill="#555555" points="217.69,867.772,226.8789,864.2275,221.2221,864.233,221.2166,858.5762,217.69,867.772" style="stroke:#555555;stroke-width:1.0;"/><text fill="#000000" font-family="sans-serif" font-size="13" lengthAdjust="spacing" textLength="47" x="290.18" y="809.889">persiste</text></g><!--reverse link Settings to pdf_router--><g id="link_Settings_pdf_router"><path codeLine="77" d="M458.8218,206.937 C474.0818,239.567 489.38,272.262 505.11,305.882 " fill="none" id="Settings-backto-pdf_router" style="stroke:#555555;stroke-width:1.0;stroke-dasharray:7.0,7.0;"/><polygon fill="#555555" points="456.28,201.502,456.4693,211.349,458.3982,206.0312,463.716,207.96,456.28,201.502" style="stroke:#555555;stroke-width:1.0;"/><text fill="#000000" font-family="sans-serif" font-size="13" lengthAdjust="spacing" textLength="43" x="480.22" y="248.249">inyecta</text></g><!--reverse link Settings to pdf_controller--><g id="link_Settings_pdf_controller"><path codeLine="78" d="M389.2785,207.3476 C383.4585,226.2976 379.98,240.972 377,260.352 C360.38,368.342 363.34,397.782 377,506.172 C380.35,532.742 386.57,561.132 393.25,586.872 " fill="none" id="Settings-backto-pdf_controller" style="stroke:#555555;stroke-width:1.0;stroke-dasharray:7.0,7.0;"/><polygon fill="#555555" points="391.04,201.612,384.574,209.041,389.5721,206.3916,392.2214,211.3897,391.04,201.612" style="stroke:#555555;stroke-width:1.0;"/><text fill="#000000" font-family="sans-serif" font-size="13" lengthAdjust="spacing" textLength="43" x="378" y="399.659">inyecta</text></g><!--SRC=[ZLJRRXen47tdAopwGbK2f252ZT98IrWYf71HIDEgLRLox06iBEkLRN8j_zwnTmbh5ghwXSNdpFZCcR7rWqXIgkYIB6Z2dvGm1X8oex66Ydx7z89o-IIIUOuKe9Io1pe7ybOXkBhuRwxaAk6NCfQAN2saDjyNma06IyL1PT27m2sttvU9oNTFtAgiYsUmc6gTdn0e9PzoxgbRvSnvZftCVRUo9COeSRyoi1-U6b0WpKjQn7jkMM6Ragj3oI6MrLnPfdB2P-Jyl2VPQWc9kRX0DVsJ_fT-JhBh4p72n43EY3QgiCj1CoLI8sIIOUGF6Sa42XGjNcsSI4nXaocW1dX43K8SFurO5eFWsIZABCFWvw7KR07iGQ-M-_6Ze_VFAHY3ew0R2Lq2-KggAP_fgeFNdZrJK8-22QbB3eMP8cjhgzNkjLkUExbUfxQcvKenM_E4cWMgkdyne3yMl5lxgUzeBD03z334IL7O2tXcu4orpUXqZuFZm3lkCOk02Ek8NFeQmxPZz-fa9cAmPTe3T_pomb8KLzjyU6JVaajCh6ICjqdvfjXObe4nMDLBoLSnMCcjNhiJ77kIiuxRasjkbEfkTkfkFEh4-bP_xwTLWxuKekTWybgZ3QcsmowFHooqYz8rIx7_VY7lTpcjiq7myh5uLo0NlQNidEArVilYWfazRjwX2bhs4TyVuppCFgo7xU3poQdVzibuUakQD1LDMrK1k0h_Ox_v9lYw0FR2w_0sF8oNWvksndypyCrDOadv_a6QYRbV- -PYOkKQVz7jREPFEkrEst-0XkFHrJZwTZCeFK8Pqkj6es0Obj1WCeYwmJJ4qEjoQF0ZwW-kmsWw-1b6msxfeReBRwQ3ySYxlBQeRSyQZOlTgt3c1cTEAplxbkez9MTafG-nTby5d62Ql1vY8vo2qZXTKDcQscWKfylMzWBCq3B34xzX_GK0]--></g></svg>