<?xml version="1.0" encoding="us-ascii" standalone="no"?><svg xmlns="http://www.w3.org/2000/svg" xmlns:xlink="http://www.w3.org/1999/xlink" contentStyleType="text/css" height="845px" preserveAspectRatio="none" style="width:561px;height:845px;background:#FFFFFF;" version="1.1" viewBox="0 0 561 845" width="561px" zoomAndPan="magnify"><defs/><g><text fill="#000000" font-family="sans-serif" font-size="14" font-weight="bold" lengthAdjust="spacing" textLength="281" x="136.25" y="29.9659">Diagrama de Secuencia &#8212; pdf-extractext</text><line style="stroke:#181818;stroke-width:0.5;stroke-dasharray:5.0,5.0;" x1="35" x2="35" y1="143.2038" y2="743.206"/><line style="stroke:#181818;stroke-width:0.5;stroke-dasharray:5.0,5.0;" x1="162" x2="162" y1="143.2038" y2="743.206"/><line style="stroke:#181818;stroke-width:0.5;stroke-dasharray:5.0,5.0;" x1="261" x2="261" y1="143.2038" y2="743.206"/><line style="stroke:#181818;stroke-width:0.5;stroke-dasharray:5.0,5.0;" x1="369.5" x2="369.5" y1="143.2038" y2="743.206"/><line style="stroke:#181818;stroke-width:0.5;stroke-dasharray:5.0,5.0;" x1="513.5" x2="513.5" y1="143.2038" y2="743.206"/><text fill="#000000" font-family="sans-serif" font-size="14" font-style="italic" lengthAdjust="spacing" textLength="55" x="5" y="120.0339">&#171;cliente&#187;</text><text fill="#000000" font-family="sans-serif" font-size="14" lengthAdjust="spacing" textLength="47" x="9" y="139.1018">Cliente</text><ellipse cx="35.5" cy="53.5679" fill="#D6EAF8" rx="8" ry="8" style="stroke:#2E86C1;stroke-width:0.5;"/><path d="M35.5,61.5679 L35.5,88.5679 M22.5,69.5679 L48.5,69.5679 M35.5,88.5679 L22.5,103.5679 M35.5,88.5679 L48.5,103.5679 " fill="none" style="stroke:#2E86C1;stroke-width:0.5;"/><text fill="#000000" font-family="sans-serif" font-size="14" font-style="italic" lengthAdjust="spacing" textLength="55" x="5" y="757.172">&#171;cliente&#187;</text><text fill="#000000" font-family="sans-serif" font-size="14" lengthAdjust="spacing" textLength="47" x="9" y="776.2399">Cliente</text><ellipse cx="35.5" cy="788.8419" fill="#D6EAF8" rx="8" ry="8" style="stroke:#2E86C1;stroke-width:0.5;"/><path d="M35.5,796.8419 L35.5,823.8419 M22.5,804.8419 L48.5,804.8419 M35.5,823.8419 L22.5,838.8419 M35.5,823.8419 L48.5,838.8419 " fill="none" style="stroke:#2E86C1;stroke-width:0.5;"/><rect fill="#D6EAF8" height="52.1358" rx="2.5" ry="2.5" style="stroke:#2E86C1;stroke-width:0.5;" width="69" x="128" y="90.0679"/><text fill="#000000" font-family="sans-serif" font-size="14" font-style="italic" lengthAdjust="spacing" textLength="55" x="135" y="112.0339">&#171;cliente&#187;</text><text fill="#000000" font-family="sans-serif" font-size="14" lengthAdjust="spacing" textLength="21" x="152" y="131.1018">CLI</text><rect fill="#D6EAF8" height="52.1358" rx="2.5" ry="2.5" style="stroke:#2E86C1;stroke-width:0.5;" width="69" x="128" y="742.206"/><text fill="#000000" font-family="sans-serif" font-size="14" font-style="italic" lengthAdjust="spacing" textLength="55" x="135" y="764.172">&#171;cliente&#187;</text><text fill="#000000" font-family="sans-serif" font-size="14" lengthAdjust="spacing" textLength="21" x="152" y="783.2399">CLI</text><rect fill="#D5F5E3" height="52.1358" rx="2.5" ry="2.5" style="stroke:#1E8449;stroke-width:0.5;" width="85" x="219" y="90.0679"/><text fill="#000000" font-family="sans-serif" font-size="14" font-style="italic" lengthAdjust="spacing" textLength="44" x="239.5" y="112.0339">&#171;vista&#187;</text><text fill="#000000" font-family="sans-serif" font-size="14" lengthAdjust="spacing" textLength="71" x="226" y="131.1018">pdf_router</text><rect fill="#D5F5E3" height="52.1358" rx="2.5" ry="2.5" style="stroke:#1E8449;stroke-width:0.5;" width="85" x="219" y="742.206"/><text fill="#000000" font-family="sans-serif" font-size="14" font-style="italic" lengthAdjust="spacing" textLength="44" x="239.5" y="764.172">&#171;vista&#187;</text><text fill="#000000" font-family="sans-serif" font-size="14" lengthAdjust="spacing" textLength="71" x="226" y="783.2399">pdf_router</text><rect fill="#D5F5E3" height="52.1358" rx="2.5" ry="2.5" style="stroke:#1E8449;stroke-width:0.5;" width="108" x="315.5" y="90.0679"/><text fill="#000000" font-family="sans-serif" font-size="14" font-style="italic" lengthAdjust="spacing" textLength="89" x="325" y="112.0339">&#171;controlador&#187;</text><text fill="#000000" font-family="sans-serif" font-size="14" lengthAdjust="spacing" textLength="94" x="322.5" y="131.1018">pdf_controller</text><rect fill="#D5F5E3" height="52.1358" rx="2.5" ry="2.5" style="stroke:#1E8449;stroke-width:0.5;" width="108" x="315.5" y="742.206"/><text fill="#000000" font-family="sans-serif" font-size="14" font-style="italic" lengthAdjust="spacing" textLength="89" x="325" y="764.172">&#171;controlador&#187;</text><text fill="#000000" font-family="sans-serif" font-size="14" lengthAdjust="spacing" textLength="94" x="322.5" y="783.2399">pdf_controller</text><text fill="#000000" font-family="sans-serif" font-size="14" font-style="italic" lengthAdjust="spacing" textLength="30" x="495.5" y="120.0339">&#171;db&#187;</text><text fill="#000000" font-family="sans-serif" font-size="14" lengthAdjust="spacing" textLength="66" x="477.5" y="139.1018">MongoDB</text><path d="M495.5,69.0679 C495.5,59.0679 513.5,59.0679 513.5,59.0679 C513.5,59.0679 531.5,59.0679 531.5,69.0679 L531.5,95.0679 C531.5,105.0679 513.5,105.0679 513.5,105.0679 C513.5,105.0679 495.5,105.0679 495.5,95.0679 L495.5,69.0679 " fill="#E2E2F0" style="stroke:#181818;stroke-width:1.5;"/><path d="M495.5,69.0679 C495.5,79.0679 513.5,79.0679 513.5,79.0679 C513.5,79.0679 531.5,79.0679 531.5,69.0679 " fill="none" style="stroke:#181818;stroke-width:1.5;"/><text fill="#000000" font-family="sans-serif" font-size="14" font-style="italic" lengthAdjust="spacing" textLength="30" x="495.5" y="757.172">&#171;db&#187;</text><text fill="#000000" font-family="sans-serif" font-size="14" lengthAdjust="spacing" textLength="66" x="477.5" y="776.2399">MongoDB</text><path d="M495.5,790.3419 C495.5,780.3419 513.5,780.3419 513.5,780.3419 C513.5,780.3419 531.5,780.3419 531.5,790.3419 L531.5,816.3419 C531.5,826.3419 513.5,826.3419 513.5,826.3419 C513.5,826.3419 495.5,826.3419 495.5,816.3419 L495.5,790.3419 " fill="#E2E2F0" style="stroke:#181818;stroke-width:1.5;"/><path d="M495.5,790.3419 C495.5,800.3419 513.5,800.3419 513.5,800.3419 C513.5,800.3419 531.5,800.3419 531.5,790.3419 " fill="none" style="stroke:#181818;stroke-width:1.5;"/><rect fill="#EBF5FB" height="3" style="stroke:#EBF5FB;stroke-width:1.0;" width="554.5" x="0" y="175.0568"/><line style="stroke:#2E86C1;stroke-width:1.0;" x1="0" x2="554.5" y1="175.0568" y2="175.0568"/><line style="stroke:#2E86C1;stroke-width:1.0;" x1="0" x2="554.5" y1="178.0568" y2="178.0568"/><rect fill="#EBF5FB" height="25.706" style="stroke:#2E86C1;stroke-width:2.0;" width="71" x="241.75" y="163.2038"/><text fill="#1A5276" font-family="sans-serif" font-size="13" font-weight="bold" lengthAdjust="spacing" textLength="54" x="247.75" y="181.1008">UPLOAD</text><polygon fill="#2E86C1" points="150.5,218.6158,160.5,222.6158,150.5,226.6158,154.5,222.6158" style="stroke:#2E86C1;stroke-width:1.0;"/><line style="stroke:#2E86C1;stroke-width:1.5;" x1="35.5" x2="156.5" y1="222.6158" y2="222.6158"/><text fill="#000000" font-family="sans-serif" font-size="13" lengthAdjust="spacing" textLength="103" x="42.5" y="216.8068">subir documento</text><polygon fill="#2E86C1" points="249.5,250.3218,259.5,254.3218,249.5,258.3218,253.5,254.3218" style="stroke:#2E86C1;stroke-width:1.0;"/><line style="stroke:#2E86C1;stroke-width:1.5;" x1="162.5" x2="255.5" y1="254.3218" y2="254.3218"/><text fill="#000000" font-family="sans-serif" font-size="13" lengthAdjust="spacing" textLength="49" x="169.5" y="248.5128">api/pdfs</text><line style="stroke:#2E86C1;stroke-width:1.5;" x1="261.5" x2="303.5" y1="286.0278" y2="286.0278"/><line style="stroke:#2E86C1;stroke-width:1.5;" x1="303.5" x2="303.5" y1="286.0278" y2="299.0278"/><line style="stroke:#2E86C1;stroke-width:1.5;" x1="262.5" x2="303.5" y1="299.0278" y2="299.0278"/><polygon fill="#2E86C1" points="272.5,295.0278,262.5,299.0278,272.5,303.0278,268.5,299.0278" style="stroke:#2E86C1;stroke-width:1.0;"/><text fill="#000000" font-family="sans-serif" font-size="13" lengthAdjust="spacing" textLength="94" x="268.5" y="280.2188">validate_bytes()</text><polygon fill="#2E86C1" points="357.5,326.7338,367.5,330.7338,357.5,334.7338,361.5,330.7338" style="stroke:#2E86C1;stroke-width:1.0;"/><line style="stroke:#2E86C1;stroke-width:1.5;" x1="261.5" x2="363.5" y1="330.7338" y2="330.7338"/><text fill="#000000" font-family="sans-serif" font-size="13" lengthAdjust="spacing" textLength="60" x="268.5" y="324.9248">checksum</text><polygon fill="#2E86C1" points="501.5,358.4398,511.5,362.4398,501.5,366.4398,505.5,362.4398" style="stroke:#2E86C1;stroke-width:1.0;"/><line style="stroke:#2E86C1;stroke-width:1.5;" x1="369.5" x2="507.5" y1="362.4398" y2="362.4398"/><text fill="#000000" font-family="sans-serif" font-size="13" lengthAdjust="spacing" textLength="120" x="376.5" y="356.6308">find_one(checksum)</text><polygon fill="#2E86C1" points="380.5,390.1459,370.5,394.1459,380.5,398.1459,376.5,394.1459" style="stroke:#2E86C1;stroke-width:1.0;"/><line style="stroke:#2E86C1;stroke-width:1.5;stroke-dasharray:2.0,2.0;" x1="374.5" x2="512.5" y1="394.1459" y2="394.1459"/><text fill="#000000" font-family="sans-serif" font-size="13" lengthAdjust="spacing" textLength="33" x="386.5" y="388.3369">None</text><polygon fill="#2E86C1" points="357.5,421.8519,367.5,425.8519,357.5,429.8519,361.5,425.8519" style="stroke:#2E86C1;stroke-width:1.0;"/><line style="stroke:#2E86C1;stroke-width:1.5;" x1="261.5" x2="363.5" y1="425.8519" y2="425.8519"/><text fill="#000000" font-family="sans-serif" font-size="13" lengthAdjust="spacing" textLength="24" x="268.5" y="420.0429">PDF</text><polygon fill="#2E86C1" points="173.5,453.5579,163.5,457.5579,173.5,461.5579,169.5,457.5579" style="stroke:#2E86C1;stroke-width:1.0;"/><line style="stroke:#2E86C1;stroke-width:1.5;stroke-dasharray:2.0,2.0;" x1="167.5" x2="368.5" y1="457.5579" y2="457.5579"/><text fill="#000000" font-family="sans-serif" font-size="13" lengthAdjust="spacing" textLength="82" x="179.5" y="451.7489">PDFResponse</text><rect fill="#EBF5FB" height="3" style="stroke:#EBF5FB;stroke-width:1.0;" width="554.5" x="0" y="487.4109"/><line style="stroke:#2E86C1;stroke-width:1.0;" x1="0" x2="554.5" y1="487.4109" y2="487.4109"/><line style="stroke:#2E86C1;stroke-width:1.0;" x1="0" x2="554.5" y1="490.4109" y2="490.4109"/><rect fill="#EBF5FB" height="25.706" style="stroke:#2E86C1;stroke-width:2.0;" width="97" x="228.75" y="475.5579"/><text fill="#1A5276" font-family="sans-serif" font-size="13" font-weight="bold" lengthAdjust="spacing" textLength="80" x="234.75" y="493.4549">DOWNLOAD</text><polygon fill="#2E86C1" points="150.5,530.9699,160.5,534.9699,150.5,538.9699,154.5,534.9699" style="stroke:#2E86C1;stroke-width:1.0;"/><line style="stroke:#2E86C1;stroke-width:1.5;" x1="35.5" x2="156.5" y1="534.9699" y2="534.9699"/><text fill="#000000" font-family="sans-serif" font-size="13" lengthAdjust="spacing" textLength="66" x="42.5" y="529.1609">pedir texto</text><polygon fill="#2E86C1" points="249.5,562.6759,259.5,566.6759,249.5,570.6759,253.5,566.6759" style="stroke:#2E86C1;stroke-width:1.0;"/><line style="stroke:#2E86C1;stroke-width:1.5;" x1="162.5" x2="255.5" y1="566.6759" y2="566.6759"/><text fill="#000000" font-family="sans-serif" font-size="13" lengthAdjust="spacing" textLength="75" x="169.5" y="560.8669">GET api/pdfs</text><polygon fill="#2E86C1" points="357.5,594.382,367.5,598.382,357.5,602.382,361.5,598.382" style="stroke:#2E86C1;stroke-width:1.0;"/><line style="stroke:#2E86C1;stroke-width:1.5;" x1="261.5" x2="363.5" y1="598.382" y2="598.382"/><text fill="#000000" font-family="sans-serif" font-size="13" lengthAdjust="spacing" textLength="72" x="268.5" y="592.573">extract_text</text><polygon fill="#2E86C1" points="501.5,626.088,511.5,630.088,501.5,634.088,505.5,630.088" style="stroke:#2E86C1;stroke-width:1.0;"/><line style="stroke:#2E86C1;stroke-width:1.5;" x1="369.5" x2="507.5" y1="630.088" y2="630.088"/><text fill="#000000" font-family="sans-serif" font-size="13" lengthAdjust="spacing" textLength="40" x="376.5" y="624.279">find_id</text><polygon fill="#2E86C1" points="380.5,657.794,370.5,661.794,380.5,665.794,376.5,661.794" style="stroke:#2E86C1;stroke-width:1.0;"/><line style="stroke:#2E86C1;stroke-width:1.5;stroke-dasharray:2.0,2.0;" x1="374.5" x2="512.5" y1="661.794" y2="661.794"/><text fill="#000000" font-family="sans-serif" font-size="13" lengthAdjust="spacing" textLength="24" x="386.5" y="655.985">PDF</text><polygon fill="#2E86C1" points="173.5,689.5,163.5,693.5,173.5,697.5,169.5,693.5" style="stroke:#2E86C1;stroke-width:1.0;"/><line style="stroke:#2E86C1;stroke-width:1.5;stroke-dasharray:2.0,2.0;" x1="167.5" x2="368.5" y1="693.5" y2="693.5"/><text fill="#000000" font-family="sans-serif" font-size="13" lengthAdjust="spacing" textLength="37" x="179.5" y="687.691">pdf_id</text><polygon fill="#2E86C1" points="46.5,721.206,36.5,725.206,46.5,729.206,42.5,725.206" style="stroke:#2E86C1;stroke-width:1.0;"/><line style="stroke:#2E86C1;stroke-width:1.5;stroke-dasharray:2.0,2.0;" x1="40.5" x2="161.5" y1="725.206" y2="725.206"/><text fill="#000000" font-family="sans-serif" font-size="13" lengthAdjust="spacing" textLength="88" x="52.5" y="719.397">texto_extraido</text><!--SRC=[XPJVRjem5CRl_HH7sarxmGOjeImgI84aqwIkhTPEkqHEV4ejWftP3birJTf3x0dx97KIO87y8HU9vFFBv-zyFhBX9a7mELqgkgR041umpb34dCBhtt-GigSU_ZAAniP-2D4hBb9gMR1lmsEUKc7WDm7xp6YyMYgP2JQNYLJNrt72KHYSJk6TFmgyS5nYKZ5KTUGY68_cWsQb3TU65ZfEw0INTPqzC0Z6m-775ZzI62KJogJgqZh2kXHPb1EXvrzv_RfGMVKldM6_J_vKmxDnIjKSMrjM-u0EX3J-o4yBFQNapqEk1Nfyvl5AeDOmUEyqG3xVSBjdpLKm2vrmrl53WzLMEBGHRz61vrnSZRhH1_DYfpII2IEaZ6vUpWrK9eXK9t9-yxcrPcTwOJipg60_E3LWEmH90HrC167Kq8XgX2zIBAK_W_Aa2PbCuDlzpPtdmsH2oCvYRrguSK5d4LV0P9ojRK6IVDKMAtPSe2d_O1Sq8PNbOsX34svDu29wCQZFpXlOYdqNucUCLpfRawEAPNSjkF341Lj8WMSx-fpiYhqcqLlBabCxt_jXRTDz7hRu5NKgXSOYE__k-srxUYaocrv-2pKdzobu_9_U2LlR6srHt6adG-6iEudE9lE25IWSvulRjjooaqNXX3Fv1W00]--></g></svg>